<svg fill="#fff" height="512" viewBox="0 0 64 64" width="512" xmlns="http://www.w3.org/2000/svg"><path d="M57.4 38c-.3-1.6-1.9-2.7-3.5-2.4-.1 0-.2 0-.3.1l-1.1.3c-1.1-1-2.4-1.8-3.8-2.3L40 30.6c1-1.5 1.7-3.2 1.9-5l2.4-1.2c1-.5 1.7-1.5 1.7-2.7v-2.3c0-.5-.1-.9-.3-1.4-.7-1.3-2.2-2-3.6-1.5V2h-2c0 1.7-1.3 3-3 3H27c-2.8 0-5 2.2-5 5v6.6c-1.6-.5-3.3.4-3.8 1.9-.1.3-.1.6-.1.9v2.3c0 1.1.6 2.2 1.7 2.7l2.4 1.2c.2 1.8.9 3.5 1.9 5l-8.6 3.1C10.9 35.3 8 39.4 8 44.1V62h47c1.7 0 3-1.3 3-3V46H43.8l14.3-4.3zm-7.2-1.3l-8.5 2.5-.1.1-2.6.8V39c0-1.1-.9-2-2-2h-2.2c-.5 0-1.1.2-1.4.6L32 39.1l-1.4-1.4c-.4-.4-.9-.6-1.4-.6H27c-1.1 0-2 .9-2 2v3c0 1.1.9 2 2 2h2.2c.5 0 1.1-.2 1.4-.6l1.4-1.4 1.4 1.4c.4.4.9.6 1.4.6h.6l.6 3.1V59c0 .3.1.7.2 1H33V46h-2v14h-7.1L22 33.5l3.3-1.2c.8.8 1.8 1.5 2.8 2 2.4 1.2 5.2 1.2 7.6 0 1-.5 2-1.2 2.8-2l9.4 3.3c.9.3 1.6.6 2.3 1.1zM35.7 42h-.8l-1.4-1.5 1.4-1.5H37v1.7c-.6.3-1 .7-1.3 1.3zm2.3.4l3.2-1 2.9 2.3-6.4 1.9-.4-2.1c-.1-.4.2-.9.7-1.1zm5.6-1.6l4.6-1.4 2.9 2.3-4.6 1.4zm-13-.3L29.2 42H27v-3h2.2zm14 9.5l1-2h4.8l-1 2zm-2.2 0H38v-2h5.4zm-26.3-7.5l1.7-7.6 2.3-.8 1.7 23.4-3.7-9.5 1.1-3.4zM24 16.8l5.5-1.4c3.5-.9 7.1-.5 10.3 1.1l.2.1v7.8c0 3.4-2 6.6-5.1 8.1-1.8.9-4 .9-5.9 0-3-1.5-5-4.7-5-8.1zm18.7 1.7c.5-.2 1.1.1 1.3.7V21.8c0 .4-.2.7-.6.9l-1.4.7v-4.7zM27 7h10c1.1 0 2.1-.4 3-1v8.4c-3.5-1.5-7.3-1.9-11-1l-5 1.3V10c0-1.7 1.3-3 3-3zm-7 14.8v-2.3c0-.2 0-.3.1-.5.2-.4.7-.7 1.2-.5l.7.2v4.7l-1.4-.7c-.4-.2-.6-.6-.6-.9zM10 44.1c0-3.6 2.2-6.9 5.6-8.3l-1.7 7.7 2.9 2-.9 2.5 4.6 12H10zM55 60H39c-.6 0-1-.4-1-1v-7h18v7c0 .6-.4 1-1 1zm1-10h-4.4l1-2H56zm-2.6-9l-2.9-2.3 3.7-1.1h.3c.5 0 .9.3 1 .8l.4 2z"/><path d="M40 55h6v2h-6zM48 55h3v2h-3z"/></svg>