<svg xmlns="http://www.w3.org/2000/svg" width="338" height="73"><defs><linearGradient id="a" x1="94.552%" x2="0%" y1="32.557%" y2="0%"><stop offset="0%" stop-color="#D69303"/><stop offset="100%" stop-color="#FEAE02"/></linearGradient></defs><path fill="url(#a)" d="M333 37.333C333 48.55 331 60 331 60a8 8 0 01-8 7.999H16A8 8 0 018 60S6 48.999 6 37.999c0-.333.002-.666.006-1a83.214 83.214 0 01-.006-1c0-10.999 2-22 2-22A8 8 0 0116 6h307a8 8 0 018 7.999s2 10.56 2 21.334c0 .34-.002.68-.006 1.021.004.326.006.652.006.979z"/></svg>