<svg xmlns="http://www.w3.org/2000/svg" viewBox="0 0 512 512" fill="#f4a803"><path d="M392.168 168.916c-2.761-2.759-7.453-3.155-10.774.167a7.492 7.492 0 000 10.6 7.504 7.504 0 0010.607 0c3.328-3.329 2.923-8.013.167-10.767zM219.836 112.493a107.955 107.955 0 00-15.869-27.904c-13.45-17.13-31.511-29.613-52.25-36.118a7.477 7.477 0 00-9.4 4.907c-1.239 3.939.961 8.156 4.911 9.395 18.639 5.861 34.775 17.325 46.479 33.09a92.963 92.963 0 0112.12 22.007c2.395 6.208 11.125 6.467 13.86.37a7.53 7.53 0 00.149-5.747zM125.278 45.743c-4.664-4.727-12.797-1.446-12.83 5.227-.03 4.15 3.357 7.536 7.5 7.536 6.64 0 9.997-8.066 5.33-12.763zM218.738 136.89a7.486 7.486 0 00-7 7.946c0 3.352 3.297 7.305 7.97 7.006 3.551-.232 7-2.952 7-7.975-.279-4.089-3.87-7.247-7.97-6.977z"/><path d="M386.98 87.036c-26.942-26.926-70.78-26.926-97.722 0-26.942 26.926-26.942 70.739 0 97.665 15.089 15.08 15.089 39.618 0 54.698-9.085 9.079-23.867 9.079-32.951 0-13.643-13.635-35.098-14.805-50.092-3.526l-9.87-9.865a106.75 106.75 0 0015.863-20.728 107.317 107.317 0 0011.79-29.423 7.391 7.391 0 00-.91-5.657c-3.469-5.647-12.119-4.332-13.68 2.189-3.893 16.351-12.037 31.109-23.666 43.022-22.826-22.813-22.069-22.485-25.892-24.509-10.027-5.304-22.707-1.998-28.719 8.004-1.152 1.922-92.16 213.102-96.868 224.013-2.626 6.087-2.31 12.82.604 18.472-9.364 12.421-11.469 28.482-5.333 43.286 15.884 38.326 67.328 33.019 95.823 4.542 11.845-11.839 27.595-18.358 44.347-18.358 4.143 0 7.5-3.356 7.5-7.496s-3.357-7.496-7.5-7.496c-20.759 0-40.275 8.079-54.953 22.749-20.816 20.802-59.933 27.894-71.358.322-3.099-7.476-3.705-18.055 2.602-27.336 5.382 2.204 11.394 2.138 16.785-.185l221.557-95.478a21.669 21.669 0 0012.72-15.835 21.653 21.653 0 00-5.968-19.411l-21.96-21.947c9.95-3.559 20.491-5.419 31.041-5.419 4.551 0 9.15.34 13.67 1.009 27.18 4.032 50.891 19.722 65.24 43.015a7.5 7.5 0 0010.33 2.449 7.486 7.486 0 002.448-10.305c-16.203-26.31-43.394-45.19-75.82-49.991-5.25-.78-10.59-1.169-15.87-1.169h-.01c-14.424 0-28.843 2.899-42.587 8.861l-40.561-40.537c8.978-5.529 20.916-4.432 28.69 3.338 14.933 14.924 39.231 14.925 54.165 0 20.938-20.925 20.938-54.974 0-75.899-21.094-21.081-21.094-55.383 0-76.464 35.206-35.185 95.334-7.846 92.249 41.618a7.498 7.498 0 007.019 7.948 7.5 7.5 0 007.952-7.015 69.091 69.091 0 00-20.105-53.151zM280.479 331.295c1.596 1.594 2.267 3.778 1.843 5.992s-1.855 3.995-3.927 4.888l-61.507 26.506c-1.067-26.906-5.182-53.255-11.691-77.691 0-1.163-2.375-5.596-7.25-5.596a7.522 7.522 0 00-6.083 3.113 7.457 7.457 0 00-1.414 4.115c-.026.73.056 1.469.247 2.197a344.335 344.335 0 0111.38 80.243l-65.76 28.341c-.8-14.581-2.5-29.241-5.07-43.572a7.483 7.483 0 00-7.37-6.186c-4.67 0-8.211 4.228-7.399 8.824a345.153 345.153 0 015.111 47.282l-64.75 27.903c-3.499 1.51-6.083-.243-7.107-1.152a.002.002 0 00-.002-.002c-.047-.047-.099-.087-.147-.133-.047-.045-.094-.089-.131-.126-.754-.753-3.085-3.513-1.415-7.384l53.151-123.192a341.404 341.404 0 018.901 28.171c1.227 4.553 6.325 6.893 10.596 4.764a7.497 7.497 0 003.884-8.652 357.314 357.314 0 00-14.92-43.894c30.142-69.862 34.023-79.647 35.77-81.111 1.744-1.458 4.111-1.889 6.154-1.304a341.786 341.786 0 0130.396 63.176c1.384 3.877 5.701 5.94 9.59 4.517 3.89-1.399 5.92-5.696 4.52-9.584a354.908 354.908 0 00-9.993-24.791l94.393 94.338zM400.179 383.106a7.5 7.5 0 00-7.49 7.126 95.564 95.564 0 01-.891 9.095c-.6 4.087 2.23 7.905 6.32 8.515a7.535 7.535 0 008.521-6.326c.51-3.498.859-7.036 1.04-10.534.208-4.319-3.253-7.876-7.5-7.876zM404.429 359.029c-.969-3.778-4.794-6.444-9.131-5.397a7.498 7.498 0 00-5.399 9.115c0 .01 0 .01.01.02 1.021 3.975 5.087 6.43 9.129 5.387 4-1.029 6.42-5.127 5.391-9.125z"/><path d="M277.574 193.727a7.502 7.502 0 00-9.464-4.787l-2.663.873V186.9a7.498 7.498 0 00-7.5-7.496 7.497 7.497 0 00-7.5 7.496v2.912l-2.663-.873a7.495 7.495 0 10-4.675 14.245l2.764.906-1.74 2.415c-3.585 4.978.027 11.876 6.081 11.876 4.371 0 6.072-3.087 7.732-5.392l1.639 2.275a7.503 7.503 0 0010.469 1.704 7.494 7.494 0 001.705-10.463l-1.74-2.415 2.764-.906a7.493 7.493 0 004.791-9.457zM485.57 14.322a7.502 7.502 0 00-9.464-4.787l-2.663.873V7.496a7.498 7.498 0 00-7.5-7.496 7.497 7.497 0 00-7.5 7.496v2.911l-2.663-.873c-3.935-1.284-8.172.853-9.464 4.787a7.495 7.495 0 004.789 9.458l2.765.906-1.74 2.416a7.494 7.494 0 001.706 10.463 7.503 7.503 0 0010.469-1.704l1.638-2.275c1.576 2.188 3.3 5.392 7.732 5.392 6.041 0 9.671-6.89 6.081-11.876l-1.74-2.416 2.764-.906a7.493 7.493 0 004.79-9.457zM269.572 44.806a7.502 7.502 0 00-9.464-4.787l-2.663.873V37.98a7.498 7.498 0 00-7.5-7.496 7.497 7.497 0 00-7.5 7.496v2.912l-2.663-.873c-3.936-1.285-8.173.853-9.464 4.787a7.497 7.497 0 004.791 9.457l2.765.907-1.74 2.417a7.493 7.493 0 001.706 10.462 7.502 7.502 0 0010.469-1.705l1.637-2.274c1.632 2.266 3.331 5.392 7.732 5.392 6.041 0 9.671-6.89 6.081-11.876l-1.74-2.416 2.764-.906a7.494 7.494 0 004.789-9.458z"/><circle cx="329.44" cy="37.48" r="7.496"/><circle cx="169.43" cy="158.82" r="7.5"/><circle cx="439.45" cy="78.86" r="7.496"/><circle cx="335.44" cy="125.43" r="7.5"/><circle cx="457.47" cy="168.39" r="7.496"/><path d="M427.289 227.285a15.057 15.057 0 00-3.41-9.564c-3.046-3.767-7.674-5.396-10.53-5.396-3.69 0-6.88 2.768-7.41 6.426-.601 4.087 2.25 7.895 6.34 8.495l-13.38 13.032a7.49 7.49 0 00-2.16 6.636c.003.015 3.16 18.393 3.16 18.409-22.056-11.588-18.19-11.499-40.061 0l3.16-18.409a7.535 7.535 0 00-2.16-6.636l-13.38-13.032 18.49-2.688a7.54 7.54 0 005.65-4.098l8.27-16.75 3.26 6.606a7.492 7.492 0 0010.051 3.408c3.71-1.829 5.239-6.337 3.409-10.034l-3.27-6.616a14.912 14.912 0 00-13.45-8.355c-5.67-.09-10.96 3.228-13.46 8.355l-6.52 13.212-14.591 2.119c-3.699.52-7.14 2.459-9.449 5.317a15.057 15.057 0 00-3.41 9.564c-.03 3.928 1.67 7.926 4.55 10.693l10.55 10.284c-2.723 15.89-2.71 15.382-2.71 17.11-.02 8.172 6.694 14.94 15 14.961 4.658 0 6.128-1.287 20.04-8.595 13.761 7.23 15.358 8.595 20.021 8.595h.01c3.91-.01 7.63-1.519 10.46-4.268a14.858 14.858 0 004.54-10.694c0-.87-.07-1.729-.21-2.568l-2.5-14.542c10.546-10.27 15.159-13.183 15.1-20.977z"/></svg>