<svg xmlns="http://www.w3.org/2000/svg" viewBox="0 0 511.999 511.999" fill="#fff"><path d="M246.216 42.795h-93.291a8.348 8.348 0 100 16.696h93.291a8.348 8.348 0 100-16.696zM216.231 454.738h-33.322a8.348 8.348 0 100 16.696h33.322a8.348 8.348 0 100-16.696zM318.009 199.679V142.17a8.348 8.348 0 00-8.348-8.348H87.95a8.348 8.348 0 00-8.348 8.348v57.578a8.348 8.348 0 008.348 8.349h221.712a8.353 8.353 0 008.351-8.352c0-.023-.004-.044-.004-.066zm-221.711-8.278v-40.882h152.329l40.888 40.882H96.298zm205.016-11.81l-29.075-29.072h29.075v29.072zM210.651 232.425H89.074a8.348 8.348 0 100 16.696h121.577a8.348 8.348 0 100-16.696z"/><path d="M462.797 256.692h-31.429a8.348 8.348 0 100 16.696h23.081V411.47H350.036c-.032 0-.065-.004-.097-.004h-157.26V273.388h188.427a8.348 8.348 0 100-16.696h-22.821V64.932C358.286 29.128 329.159 0 293.355 0h-187.57C69.982 0 40.854 29.128 40.854 64.932v382.136c0 35.803 29.128 64.932 64.932 64.932h187.57c35.803 0 64.932-29.128 64.932-64.932v-18.903h104.51a8.348 8.348 0 008.348-8.348V265.04a8.348 8.348 0 00-8.349-8.348zM57.549 64.932c0-26.597 21.639-48.236 48.236-48.236h187.57c26.597 0 48.236 21.639 48.236 48.236v12.741H57.549V64.932zm0 29.437H341.59v162.323H184.332a8.348 8.348 0 00-8.348 8.348v4.638h-86.91a8.348 8.348 0 100 16.696h86.91v125.091H57.549V94.369zM341.59 447.068c0 26.597-21.638 48.236-48.236 48.236H105.785c-26.597 0-48.236-21.639-48.236-48.236V428.16h126.685c.032 0 .065.004.097.004H341.59v18.904z"/><path d="M431.368 305.378c-7.426 0-13.468-6.042-13.468-13.468a8.347 8.347 0 00-8.348-8.348H237.576a8.349 8.349 0 00-8.348 8.348c0 7.426-6.042 13.468-13.468 13.468a8.348 8.348 0 00-8.348 8.348v57.406a8.347 8.347 0 008.348 8.348c7.426 0 13.468 6.042 13.468 13.468a8.348 8.348 0 008.348 8.348h171.976a8.348 8.348 0 008.348-8.348c0-7.426 6.042-13.468 13.468-13.468a8.348 8.348 0 008.348-8.348v-57.406a8.347 8.347 0 00-8.348-8.348zm-8.347 58.582c-9.932 2.865-17.776 10.709-20.64 20.64H244.75c-2.864-9.932-10.709-17.775-20.64-20.64v-43.061c9.932-2.865 17.776-10.709 20.64-20.64h157.63c2.864 9.932 10.709 17.775 20.64 20.64v43.061z"/><path d="M335.431 334.65v-7.382c1.714.942 2.578 1.957 2.578 2.352a8.348 8.348 0 1016.696 0c0-9.639-8.162-17.562-19.641-20.102a8.35 8.35 0 00-15.964 0c-11.479 2.54-19.641 10.463-19.641 20.102 0 9.538 7.988 17.397 19.275 20.024v7.382c-1.715-.943-2.58-1.958-2.58-2.353a8.348 8.348 0 10-16.696 0c0 9.591 8.078 17.484 19.466 20.066.81 3.762 4.153 6.583 8.158 6.583s7.346-2.82 8.158-6.583c11.386-2.582 19.465-10.475 19.465-20.066-.001-9.537-7.988-17.397-19.274-20.023zm-16.698-2.679c-1.714-.942-2.579-1.957-2.579-2.352s.865-1.41 2.579-2.352v4.704zm16.695 25.053v-4.703c1.713.942 2.578 1.956 2.578 2.351s-.865 1.411-2.578 2.352z"/></svg>